<svg xmlns="http://www.w3.org/2000/svg" width="100" height="78.818" viewBox="0 0 100 78.818">
    <defs>
        <style>
            .prefix__cls-3{fill:#4fba6f}.prefix__cls-4{fill:#24ae5f}.prefix__cls-5{fill:#7ed09e}
        </style>
    </defs>
    <g id="prefix__Group_5062" data-name="Group 5062" transform="translate(-686.179 -752.757)">
        <path id="prefix__Path_24358" d="M8.928-11.74c19.731 0 55.778 10.717 55.778 30.448s-16.541 48.37-36.272 48.37S-20.54 49.265-20.54 29.534-10.8-11.74 8.928-11.74z" data-name="Path 24358" transform="translate(706.719 764.497)" style="fill:#fdf3d5"/>
        <g id="prefix___004---Tree" data-name="004---Tree" transform="translate(717.602 752.924)">
            <path id="prefix__Shape" d="M47.057 63.945a5.715 5.715 0 0 1-5.715-5.715c0-10.507.382-13.757-1.479-19.068a1.136 1.136 0 0 1 1.079-1.505h4.972a8.025 8.025 0 0 0 8-8v-5.19h-4.571v4.046a4.572 4.572 0 0 1-4.572 4.572h-7.334c-.886 0-1.1-.856-1.466-1.223a1.153 1.153 0 0 1-.183-1.1l3.749-10.321-1.052-4.027-4.24 5.227-1.486 4.079a1.143 1.143 0 0 1-1.9.394c-.959-1.012-1.884-1.966-2.629-2.721l-6.172 1.829a35.708 35.708 0 0 1 3.2 3.749 1.143 1.143 0 0 1-.924 1.829h-7.157a1.143 1.143 0 0 1-1.022-.631l-1.592-3.175-7.938-6.55a107.711 107.711 0 0 0 5.754 12.4 4.572 4.572 0 0 0 4.089 2.527h11.917a1.151 1.151 0 0 1 1.049.672c3.872 8.634 3.969 16.5-1.807 27.9z" transform="translate(.947 2.346)" style="fill:#805333"/>
            <path id="prefix__Shape-2" d="M53.774 11.509C53.649 11.481 40.3 22.426 40.3 22.653a3.4 3.4 0 0 1-3.657-.892 3.421 3.421 0 0 1-6.309.263 4.451 4.451 0 0 1-2.64 1.829 5.136 5.136 0 0 1-7.338 4.218c.091-.057-5.246-10.721-5.315-10.687a5.149 5.149 0 0 1 4.709-8.206 5.149 5.149 0 0 1 7.13-5.338 5.715 5.715 0 0 1 9.681-1.909 4.564 4.564 0 0 1 7.875.731A3.429 3.429 0 0 1 49.088 7.2a3.429 3.429 0 0 1 4.686 4.309z" class="prefix__cls-3" data-name="Shape" transform="translate(2.002 -.001)"/>
            <g id="prefix__Group_5042" data-name="Group 5042" transform="translate(1.135 9.557)">
                <path id="prefix__Shape-3" d="M60 18.235a3.429 3.429 0 0 1-3.429 3.429 3.429 3.429 0 0 1-5.484 2.736 4.559 4.559 0 0 1-7.749-.709 3.429 3.429 0 0 1-6.195-2.023 1.243 1.243 0 0 1 .011-.206 2.943 2.943 0 0 1-1.109.206 6.277 6.277 0 0 1 1.806-5.2 6.322 6.322 0 0 1 5.566-5.383A8.089 8.089 0 0 1 50.8 8.474a3.366 3.366 0 0 1-.171 1.84 5.7 5.7 0 0 1 4.72 4.72A3.429 3.429 0 0 1 60 18.235z" class="prefix__cls-4" data-name="Shape" transform="translate(4.012 -8.363)"/>
                <path id="prefix__Shape-4" d="M59.86 18a3.429 3.429 0 0 1-3.429 3.429 3.429 3.429 0 0 1-5.486 2.732 4.559 4.559 0 0 1-7.749-.709 3.429 3.429 0 1 1-3.657-5.326 3.429 3.429 0 0 1 4.661-4.355 5.829 5.829 0 0 1 3.177-3.337h.011a5.715 5.715 0 0 1 7.821 4.366A3.429 3.429 0 0 1 59.86 18z" class="prefix__cls-4" data-name="Shape" transform="translate(4.153 -8.128)"/>
                <path id="prefix__Shape-5" d="M24.123 26.95a4.9 4.9 0 0 1-1.909-.48 3.419 3.419 0 0 1-4.549-.9 4.559 4.559 0 0 1-7.749.709 3.429 3.429 0 0 1-5.486-2.735 3.429 3.429 0 1 1 1.223-6.629 5.715 5.715 0 0 1 11.007-1.029l.24-.1a5.135 5.135 0 0 1-.823-4.583 8.189 8.189 0 0 1 1.723 1.471 6.541 6.541 0 0 1 5.783 5.6 6.542 6.542 0 0 1 .54 8.676z" class="prefix__cls-4" data-name="Shape" transform="translate(-.993 -7.957)"/>
                <path id="prefix__Shape-6" d="M20.431 26.856a3.388 3.388 0 0 1-2.766-1.406 4.559 4.559 0 0 1-7.749.709 3.429 3.429 0 0 1-5.486-2.732A3.429 3.429 0 1 1 5.653 16.8a5.715 5.715 0 0 1 11.007-1.03l.24-.1a3.222 3.222 0 0 1 1.749-.194 3.413 3.413 0 0 1 2.686 2.149.1.1 0 0 1 .034.08 3.334 3.334 0 0 1-.046 2.423 3.429 3.429 0 0 1-.892 6.732z" class="prefix__cls-4" data-name="Shape" transform="translate(-.993 -7.841)"/>
            </g>
            <path id="prefix__Shape-7" d="M59.345 16.284A3.429 3.429 0 0 1 56.373 18a3.429 3.429 0 0 1-5.486 2.732 4.559 4.559 0 0 1-7.749-.709 3.429 3.429 0 0 1-5.738-.309 3.4 3.4 0 0 1 2.08-1.589 3.429 3.429 0 0 1 4.663-4.355A5.715 5.715 0 0 1 55.15 14.8a3.429 3.429 0 0 1 4.195 1.486z" class="prefix__cls-3" data-name="Shape" transform="translate(5.347 1.431)"/>
            <path id="prefix__Shape-8" d="M23.345 21.713a3.429 3.429 0 0 1-5.738.309 4.559 4.559 0 0 1-7.749.709A3.429 3.429 0 0 1 4.372 20 3.429 3.429 0 0 1 1.4 18.284 3.429 3.429 0 0 1 5.595 16.8 5.715 5.715 0 0 1 16.6 15.77a3.429 3.429 0 0 1 4.663 4.355 3.4 3.4 0 0 1 2.082 1.588z" class="prefix__cls-3" data-name="Shape" transform="translate(.2 1.717)"/>
            <path id="prefix__Shape-9" d="M9.157 18.236a1.143 1.143 0 0 1-1.124-1.325 2.286 2.286 0 0 1 4.394-.413 1.143 1.143 0 1 1-2.149.776 1.143 1.143 0 0 1-1.121.962z" class="prefix__cls-5" data-name="Shape" transform="translate(1.146 2.146)"/>
            <path id="prefix__Shape-10" d="M47.157 16.236a1.143 1.143 0 0 1-1.124-1.325 2.286 2.286 0 0 1 4.394-.413 1.143 1.143 0 1 1-2.149.776 1.143 1.143 0 0 1-1.121.962z" class="prefix__cls-5" data-name="Shape" transform="translate(6.579 1.86)"/>
            <path id="prefix__Shape-11" d="M67.434 59.286H1.143a1.143 1.143 0 1 1 0-2.286h66.291a1.143 1.143 0 0 1 0 2.286z" data-name="Shape" transform="translate(0 8.148)" style="fill:#f3d55b"/>
            <path id="prefix__Shape-12" d="M23.4 8.575a1.143 1.143 0 0 1 .895-2.1 3.429 3.429 0 0 0 4.579-2.025 1.143 1.143 0 1 1 2.158.753A5.715 5.715 0 0 1 23.4 8.575z" class="prefix__cls-5" data-name="Shape" transform="translate(3.248 .523)"/>
        </g>
    </g>
</svg>
