<svg xmlns="http://www.w3.org/2000/svg" width="20" height="20.026" viewBox="0 0 20 20.026">
    <g id="prefix__checked_4_" data-name="checked (4)" transform="translate(-.301)">
        <path id="prefix__Path_24379" d="M18.118 18.8c-3.064 2.5-12.633 2.5-15.635 0-3.064-2.5-2.752-13.2 0-16.01s12.883-2.814 15.635 0 3.065 13.504 0 16.01z" data-name="Path 24379" transform="translate(0 -.645)" style="fill:#f2c230"/>
        <g id="prefix__Group_5175" data-name="Group 5175" transform="translate(.31)" style="opacity:.2">
            <path id="prefix__Path_24380" d="M10.563 13.773A14.643 14.643 0 0 1 1.87 17.15C-.256 13.523.181 4.7 2.683 2.141 4.934-.173 12-.611 16.066.827c1.001 4.128-1.066 9.381-5.503 12.946z" data-name="Path 24380" transform="translate(-.509)" style="fill:#bf9517"/>
        </g>
        <path id="prefix__Path_24381" d="M87.676 112.516a1.337 1.337 0 0 1-1.126-.563l-3.5-4.5a1.426 1.426 0 1 1 2.25-1.753l2.376 3.064 5.253-6.817a1.426 1.426 0 0 1 2.251 1.751l-6.38 8.256a1.636 1.636 0 0 1-1.124.562z" data-name="Path 24381" transform="translate(-78.813 -96.93)" style="fill:#fff"/>
    </g>
</svg>
