<svg xmlns="http://www.w3.org/2000/svg" width="24" height="24" viewBox="0 0 24 24">
    <g id="prefix__Group_5111" data-name="Group 5111" transform="translate(-8802 -2666)">
        <path id="prefix__Rectangle_2910" d="M0 0H24V24H0z" data-name="Rectangle 2910" transform="translate(8802 2666)" style="fill:none"/>
        <path id="prefix__facebook_1_" d="M13.846 0H2.158A2.156 2.156 0 0 0 0 2.156v11.688A2.156 2.156 0 0 0 2.158 16h5.764l.01-5.718H6.447a.35.35 0 0 1-.35-.349L6.089 8.09a.35.35 0 0 1 .351-.352h1.482v-1.78a2.91 2.91 0 0 1 3.106-3.192h1.513a.351.351 0 0 1 .351.351V4.67a.351.351 0 0 1-.35.351h-.928c-1 0-1.2.476-1.2 1.176v1.542h2.2a.35.35 0 0 1 .348.392l-.218 1.843a.351.351 0 0 1-.348.309h-1.97L10.416 16h3.43A2.156 2.156 0 0 0 16 13.844V2.156A2.156 2.156 0 0 0 13.846 0z" data-name="facebook (1)" transform="translate(8805.998 2670)" style="fill:#fff"/>
    </g>
</svg>
