<svg xmlns="http://www.w3.org/2000/svg" width="24" height="24" viewBox="0 0 24 24">
    <defs>
        <style>
            .prefix__cls-2{fill:#fff}
        </style>
    </defs>
    <g id="prefix__Group_5110" data-name="Group 5110" transform="translate(-8755 -2666)">
        <path id="prefix__Rectangle_2908" d="M0 0H24V24H0z" data-name="Rectangle 2908" transform="translate(8755 2666)" style="fill:none"/>
        <g id="prefix__instagram" transform="translate(8759 2670)">
            <path id="prefix__Path_24365" d="M11.234 0H4.766A4.772 4.772 0 0 0 0 4.766v6.467A4.772 4.772 0 0 0 4.766 16h6.467A4.772 4.772 0 0 0 16 11.234V4.766A4.772 4.772 0 0 0 11.234 0zm3.156 11.234a3.157 3.157 0 0 1-3.157 3.157H4.766a3.157 3.157 0 0 1-3.156-3.157V4.766A3.157 3.157 0 0 1 4.766 1.61h6.467a3.157 3.157 0 0 1 3.157 3.156v6.467z" class="prefix__cls-2" data-name="Path 24365"/>
            <path id="prefix__Path_24366" d="M137.138 133a4.138 4.138 0 1 0 4.138 4.138 4.143 4.143 0 0 0-4.138-4.138zm0 6.667a2.529 2.529 0 1 1 2.529-2.529 2.529 2.529 0 0 1-2.529 2.529z" class="prefix__cls-2" data-name="Path 24366" transform="translate(-129.138 -129.138)"/>
            <circle id="prefix__Ellipse_31" cx=".992" cy=".992" r=".992" class="prefix__cls-2" data-name="Ellipse 31" transform="translate(11.155 2.901)"/>
        </g>
    </g>
</svg>
