<svg xmlns="http://www.w3.org/2000/svg" width="24" height="24" viewBox="0 0 24 24">
    <g id="prefix__Group_5112" data-name="Group 5112" transform="translate(-8844 -2666)">
        <path id="prefix__Rectangle_2909" d="M0 0H24V24H0z" data-name="Rectangle 2909" transform="translate(8844 2666)" style="fill:none"/>
        <path id="prefix__linkedin_1_" d="M14.553 0H1.447A1.447 1.447 0 0 0 0 1.447v13.106A1.447 1.447 0 0 0 1.447 16h13.106A1.447 1.447 0 0 0 16 14.553V1.447A1.447 1.447 0 0 0 14.553 0zm-9.6 13.815a.421.421 0 0 1-.421.421H2.737a.421.421 0 0 1-.421-.421V6.3a.421.421 0 0 1 .421-.421H4.53a.421.421 0 0 1 .421.421zM3.633 5.17a1.7 1.7 0 1 1 1.7-1.7 1.7 1.7 0 0 1-1.7 1.7zm10.687 8.679a.387.387 0 0 1-.387.387H12.01a.387.387 0 0 1-.387-.387v-3.525c0-.526.154-2.3-1.374-2.3-1.186 0-1.426 1.217-1.475 1.764v4.066a.387.387 0 0 1-.387.387H6.525a.387.387 0 0 1-.387-.387V6.266a.387.387 0 0 1 .387-.387h1.861a.387.387 0 0 1 .387.387v.656a2.641 2.641 0 0 1 2.484-1.169c3.081 0 3.063 2.878 3.063 4.46v3.638z" data-name="linkedin (1)" transform="translate(8848 2670)" style="fill:#fff"/>
    </g>
</svg>
