<svg xmlns="http://www.w3.org/2000/svg" width="30" height="30" viewBox="0 0 30 30">
    <defs>
        <style>
            .prefix__cls-2{fill:#26211c}
        </style>
    </defs>
    <g id="prefix__Group_5033" data-name="Group 5033" transform="translate(-1269.446 -19.446)">
        <circle id="prefix__Ellipse_30" cx="15" cy="15" r="15" data-name="Ellipse 30" transform="translate(1269.446 19.446)" style="fill:#fff"/>
        <g id="prefix__Group_5032" data-name="Group 5032" transform="translate(1277.214 25.767)">
            <path id="prefix__Path_24343" d="M140.77 9.353h.115a3.317 3.317 0 0 0 2.534-1.1c1.384-1.56 1.154-4.235 1.129-4.49a3.667 3.667 0 0 0-1.743-3.26A4 4 0 0 0 140.871 0h-.061a4 4 0 0 0-1.934.492 3.67 3.67 0 0 0-1.765 3.275c-.025.255-.255 2.93 1.129 4.49a3.3 3.3 0 0 0 2.53 1.096z" class="prefix__cls-2" data-name="Path 24343" transform="translate(-133.451)"/>
            <path id="prefix__Path_24344" d="M50.837 263.714v-.014-.09c-.022-.712-.068-2.376-1.628-2.908l-.036-.011a10.371 10.371 0 0 1-2.984-1.359.485.485 0 0 0-.676.119c-.155.219-2.049 3.1-2.049 3.1s-1.905-2.888-2.06-3.107a.485.485 0 0 0-.676-.119 10.26 10.26 0 0 1-2.984 1.359l-.036.011c-1.56.536-1.607 2.2-1.628 2.908a.722.722 0 0 1 0 .09v.011a5.513 5.513 0 0 0 .183 1.628.461.461 0 0 0 .187.226 13.6 13.6 0 0 0 7.017 1.718 13.638 13.638 0 0 0 7.017-1.718.481.481 0 0 0 .187-.226 5.783 5.783 0 0 0 .166-1.618z" class="prefix__cls-2" data-name="Path 24344" transform="translate(-36.073 -249.925)"/>
        </g>
    </g>
</svg>
