<svg xmlns="http://www.w3.org/2000/svg" width="100" height="78.818" viewBox="0 0 100 78.818">
    <defs>
        <style>
            .prefix__cls-8{fill:#f8a450}
        </style>
    </defs>
    <g id="prefix__Group_5063" data-name="Group 5063" transform="translate(-912.179 -752.757)">
        <path id="prefix__Path_24359" d="M8.928-11.74c19.731 0 55.778 10.717 55.778 30.448s-16.541 48.37-36.272 48.37S-20.54 49.265-20.54 29.534-10.8-11.74 8.928-11.74z" data-name="Path 24359" transform="translate(932.719 764.497)" style="fill:#fdf3d5"/>
        <g id="prefix__Page-1" transform="translate(943.602 757.724)">
            <g id="prefix___011---Star" data-name="011---Star">
                <path id="prefix__Shape" d="M20.865 13.633l2.73 5.486L29.7 20a1.131 1.131 0 0 1 .633 1.934l-4.418 4.276 1.042 6.034a1.143 1.143 0 0 1-1.658 1.2l-5.461-2.849-5.461 2.845a1.143 1.143 0 0 1-1.658-1.2l1.043-6.034-4.419-4.269A1.131 1.131 0 0 1 9.976 20l6.105-.88 2.731-5.486a1.143 1.143 0 0 1 2.053 0z" transform="translate(.148 .841)" style="fill:#ff850b"/>
                <path id="prefix__Shape-2" d="M42.336 1.655l3.779 7.7 8.457 1.234a1.178 1.178 0 0 1 .648 2.008l-6.12 5.991 1.443 8.457a1.171 1.171 0 0 1-1.7 1.24l-7.56-4-7.56 4a1.171 1.171 0 0 1-1.7-1.235l1.443-8.457-6.11-5.993A1.178 1.178 0 0 1 28 10.592l8.457-1.234 3.779-7.7a1.169 1.169 0 0 1 2.095 0z" data-name="Shape" transform="translate(2.72 -.871)" style="fill:#fd9124"/>
                <path id="prefix__Shape-3" d="M54.908 32.053l-.023-.023a2.256 2.256 0 0 0-3.166.183L48.1 36.019v-1.086a2.857 2.857 0 1 0-5.714 0v7.109l-2.049 2.148a5.24 5.24 0 0 1-3.143 1.543 3.356 3.356 0 0 1-.583.057h-4.674a3.357 3.357 0 0 1-.583-.057 5.215 5.215 0 0 1-3.12-1.52l-8.023-8.434a1.134 1.134 0 0 0-.823-.354 1.12 1.12 0 0 0-.64.206 5.016 5.016 0 0 0-.537 6.857l3.406 3.691a2.27 2.27 0 0 1 0 3.234l-1.749 1.749-.823-.72a1.15 1.15 0 0 0-1.52 0l-9.44 8.5a2.286 2.286 0 0 0 1.531 3.989h15.44a2.286 2.286 0 0 0 1.531-.583l2.034-1.829a1.133 1.133 0 0 0-.011-1.7l-.823-.72 2.24-2.183a3.466 3.466 0 0 1 2.411-.983h2.149a10.224 10.224 0 0 0 8.4-4.366 66.341 66.341 0 0 1 4.263-5.52 2.673 2.673 0 0 0 .331-.469l.023-.034L55 36.647a3.281 3.281 0 0 0-.091-4.594z" data-name="Shape" transform="translate(-.092 3.481)" style="fill:#fdd7ad"/>
                <path id="prefix__Shape-4" d="M28.622 58.186l-2.034 1.829a2.286 2.286 0 0 1-1.531.583H9.617a2.286 2.286 0 0 1-1.531-3.989l9.44-8.5a1.15 1.15 0 0 1 1.52 0l.823.72 7.92 6.937.823.72a1.133 1.133 0 0 1 .011 1.7z" data-name="Shape" transform="translate(-.092 5.816)" style="fill:#955ba5"/>
                <path id="prefix__Shape-5" d="M21.393 57.536a1.143 1.143 0 0 1-.808-.335l-2.018-2.018a1.143 1.143 0 0 1 1.616-1.616l2.017 2.018a1.143 1.143 0 0 1-.808 1.951z" data-name="Shape" transform="translate(1.469 6.592)" style="fill:#3d324c"/>
                <path id="prefix__Shape-6" d="M49.964 36.647l-7.394 7.9a3.327 3.327 0 0 0 .491-1.737v-6.791l3.623-3.806a2.256 2.256 0 0 1 3.166-.183l.023.023a3.281 3.281 0 0 1 .091 4.594z" data-name="Shape" transform="translate(4.944 3.481)" style="fill:#f9c795"/>
                <g id="prefix__Group_5041" data-name="Group 5041">
                    <path id="prefix__Shape-7" d="M4.387 14.074a1.153 1.153 0 0 1-.229-.022l-2.242-.446a1.143 1.143 0 1 1 .446-2.242l2.242.446a1.143 1.143 0 0 1-.222 2.264z" class="prefix__cls-8" data-name="Shape" transform="translate(-.996 .605)"/>
                    <path id="prefix__Shape-8" d="M60.424 25a1.257 1.257 0 0 1-.229-.022l-2.242-.446a1.143 1.143 0 1 1 .447-2.242l2.242.446A1.143 1.143 0 0 1 60.424 25z" class="prefix__cls-8" data-name="Shape" transform="translate(7.01 2.166)"/>
                    <path id="prefix__Shape-9" d="M2.143 25a1.143 1.143 0 0 1-.222-2.264l2.242-.446a1.143 1.143 0 0 1 .446 2.242l-2.242.446a1.257 1.257 0 0 1-.224.022z" class="prefix__cls-8" data-name="Shape" transform="translate(-.995 2.166)"/>
                    <path id="prefix__Shape-10" d="M58.18 14.074a1.143 1.143 0 0 1-.222-2.264l2.242-.446a1.143 1.143 0 1 1 .446 2.242l-2.242.446a1.153 1.153 0 0 1-.224.022z" class="prefix__cls-8" data-name="Shape" transform="translate(7.011 .605)"/>
                    <path id="prefix__Shape-11" d="M6.474 35.555a1.143 1.143 0 0 1-.637-2.093l1.9-1.27a1.143 1.143 0 0 1 1.271 1.9l-1.9 1.27a1.143 1.143 0 0 1-.634.192z" class="prefix__cls-8" data-name="Shape" transform="translate(-.376 3.557)"/>
                    <path id="prefix__Shape-12" d="M54.151 4.445a1.143 1.143 0 0 1-.637-2.094l1.9-1.27a1.143 1.143 0 1 1 1.271 1.9l-1.9 1.27a1.143 1.143 0 0 1-.633.193z" class="prefix__cls-8" data-name="Shape" transform="translate(6.435 -.888)"/>
                    <path id="prefix__Shape-13" d="M8.372 4.445a1.143 1.143 0 0 1-.634-.193l-1.9-1.27a1.143 1.143 0 0 1 1.271-1.9l1.9 1.27a1.143 1.143 0 0 1-.637 2.094z" class="prefix__cls-8" data-name="Shape" transform="translate(-.376 -.888)"/>
                    <path id="prefix__Shape-14" d="M56.049 35.555a1.143 1.143 0 0 1-.634-.192l-1.9-1.27a1.143 1.143 0 0 1 1.27-1.9l1.9 1.27a1.143 1.143 0 0 1-.637 2.093z" class="prefix__cls-8" data-name="Shape" transform="translate(6.436 3.557)"/>
                </g>
            </g>
        </g>
    </g>
</svg>
