<svg xmlns="http://www.w3.org/2000/svg" width="100" height="78.818" viewBox="0 0 100 78.818">
    <defs>
        <style>
            .prefix__cls-2{fill:#4c8056}.prefix__cls-8{fill:#805333}
        </style>
    </defs>
    <g id="prefix__Group_5061" data-name="Group 5061" transform="translate(-460.179 -752.757)">
        <path id="prefix__Path_24357" d="M8.928-11.74c19.731 0 55.778 10.717 55.778 30.448s-16.541 48.37-36.272 48.37S-20.54 49.265-20.54 29.534-10.8-11.74 8.928-11.74z" data-name="Path 24357" transform="translate(480.719 764.497)" style="fill:#fdf3d5"/>
        <g id="prefix__plant_3_" data-name="plant (3)" transform="translate(491.602 757.724)">
            <path id="prefix__Path_24348" d="M251.1 42.559c-4.115-1.774-10.275-1.064-10.275-1.064s1.856 6.042 4.316 8.927a4.92 4.92 0 0 0 4.789 1.454z" class="prefix__cls-2" data-name="Path 24348" transform="translate(-208.57 -35.858)"/>
            <path id="prefix__Path_24349" d="M322.239 21.2c-3.819 5.024-11.434 4.578-15.739.153s-4.645-12.133.148-16.181c7.93-6.7 24.485-4.525 24.485-4.525s-3.826 13.888-8.894 20.553z" data-name="Path 24349" transform="translate(-262.556 -.314)" style="fill:#71c285"/>
            <path id="prefix__Path_24350" d="M256.078 110.721c-.042 0-.084 0-.126-.006a1.184 1.184 0 0 1-1.051-1.3c1.534-14.415 16.765-21.083 17.412-21.359a1.182 1.182 0 1 1 .93 2.174c-.146.062-14.605 6.411-15.99 19.434a1.183 1.183 0 0 1-1.175 1.057z" class="prefix__cls-2" data-name="Path 24350" transform="translate(-220.754 -76.221)"/>
            <path id="prefix__Path_24351" d="M105.93 247.487a5.878 5.878 0 0 1 8.438-5.325 7.07 7.07 0 0 1 9.539-1.848 3.541 3.541 0 0 1 6.853 1.261c0 .062-.015.12-.018.181a8.869 8.869 0 0 1 9.682 4.652 4.723 4.723 0 0 1 5.707 4.626c0 .02-.006.039-.006.059a4.126 4.126 0 0 1 3.553 4.079 9.825 9.825 0 0 1-7.256 6.5l-13.766 2.959a9.826 9.826 0 0 1-3.689.084l-8.922-1.5a9.825 9.825 0 0 1-7.881-7.2z" data-name="Path 24351" transform="translate(-91.742 -206.188)" style="fill:#cb8252"/>
            <path id="prefix__Path_24352" d="M10.641 295.135v21.283a4.158 4.158 0 0 1-4.141 4.138H4.138A4.143 4.143 0 0 1 0 316.418v-21.283A4.143 4.143 0 0 1 4.138 291H6.5a4.145 4.145 0 0 1 3.807 2.518 4.087 4.087 0 0 1 .334 1.617z" data-name="Path 24352" transform="translate(0 -252.063)" style="fill:#f0785a"/>
            <path id="prefix__Path_24353" d="M127.949 319.967l-22.158 13.491a8.272 8.272 0 0 1-4.3 1.206h-31.1l-.035-.035a4.091 4.091 0 0 0 1.218-2.92v-21.284a4.09 4.09 0 0 0-.331-1.62l.331-.154h3.311a10.828 10.828 0 0 1 6.739 2.365 10.829 10.829 0 0 0 6.739 2.365h6.184a5.9 5.9 0 0 1 5.072 2.873l.106.177a4.279 4.279 0 0 1-.65 5.226h2.779a4.648 4.648 0 0 0 1.5-.248l21.886-7.3a3.258 3.258 0 0 1 3.618 1.135v.012a3.229 3.229 0 0 1-.91 4.706z" data-name="Path 24353" transform="translate(-60.933 -267.353)" style="fill:#fdd7ad"/>
            <path id="prefix__Path_24354" d="M142.425 401.656a1.182 1.182 0 0 1-.66-2.164l.863-.58a11.848 11.848 0 0 1 6.56-1.986h7.732a1.182 1.182 0 1 1 0 2.365h-7.732a9.476 9.476 0 0 0-5.247 1.589l-.857.575a1.172 1.172 0 0 1-.659.201z" data-name="Path 24354" transform="translate(-122.324 -343.804)" style="fill:#cbb292"/>
            <g id="prefix__Group_5040" data-name="Group 5040" transform="translate(24.888 36.569)">
                <path id="prefix__Path_24355" d="M187 278.071a1.182 1.182 0 0 1-1.16-1.418 4.151 4.151 0 0 1 4.056-3.311 4.1 4.1 0 0 1 2.484.828 1.182 1.182 0 0 1-1.42 1.89 1.756 1.756 0 0 0-1.064-.354 1.778 1.778 0 0 0-1.738 1.418 1.182 1.182 0 0 1-1.158.947z" class="prefix__cls-8" data-name="Path 24355" transform="translate(-185.818 -273.342)"/>
                <path id="prefix__Path_24356" d="M288.21 295.9a1.182 1.182 0 0 1-1.169-1.015 1.756 1.756 0 0 0-.5-1 1.779 1.779 0 0 0-2.232-.227 1.182 1.182 0 1 1-1.309-1.975 4.139 4.139 0 0 1 6.381 2.867 1.183 1.183 0 0 1-1 1.338 1.267 1.267 0 0 1-.171.012z" class="prefix__cls-8" data-name="Path 24356" transform="translate(-269.525 -288.632)"/>
            </g>
        </g>
    </g>
</svg>
