<svg xmlns="http://www.w3.org/2000/svg" width="24" height="24" viewBox="0 0 24 24">
    <g id="prefix__Group_5109" data-name="Group 5109" transform="translate(-8667 -2666)">
        <path id="prefix__Rectangle_2907" d="M0 0H24V24H0z" data-name="Rectangle 2907" transform="translate(8667 2666)" style="fill:none"/>
        <path id="prefix__twitter_1_" d="M18.929 36.352a7.617 7.617 0 0 1-1.329.448 4.135 4.135 0 0 0 1.092-1.738.217.217 0 0 0-.317-.253 7.653 7.653 0 0 1-2.028.838.517.517 0 0 1-.127.016.537.537 0 0 1-.355-.136 4.147 4.147 0 0 0-2.744-1.036 4.434 4.434 0 0 0-1.314.2A4.018 4.018 0 0 0 9.1 37.589a4.424 4.424 0 0 0-.1 1.526.148.148 0 0 1-.037.116.154.154 0 0 1-.114.052h-.011a10.874 10.874 0 0 1-7.473-3.993.217.217 0 0 0-.355.028 4.152 4.152 0 0 0 .675 5.041 3.716 3.716 0 0 1-.946-.366.217.217 0 0 0-.322.187A4.152 4.152 0 0 0 2.838 44h-.089a3.731 3.731 0 0 1-.7-.067.217.217 0 0 0-.247.279 4.156 4.156 0 0 0 3.283 2.827A7.652 7.652 0 0 1 .8 48.347H.321a.318.318 0 0 0-.31.239.329.329 0 0 0 .157.363 11.382 11.382 0 0 0 5.719 1.542 11.538 11.538 0 0 0 4.888-1.037 10.793 10.793 0 0 0 3.576-2.68 11.749 11.749 0 0 0 2.19-3.667 11.585 11.585 0 0 0 .744-4.014v-.063a.706.706 0 0 1 .264-.549 8.2 8.2 0 0 0 1.649-1.81.217.217 0 0 0-.268-.319z" data-name="twitter (1)" transform="translate(8669 2635.509)" style="fill:#fff"/>
    </g>
</svg>
