<svg xmlns="http://www.w3.org/2000/svg" width="24.933" height="23.893" viewBox="0 0 24.933 23.893">
    <defs>
        <style>
            .prefix__cls-2{fill:#e2d9c5}
        </style>
    </defs>
    <g id="prefix__Group_5179" data-name="Group 5179" transform="translate(-130.472 -671.704)">
        <path id="prefix__Path_24395" d="M11.689-.2C17.214-.84 22.94 6.47 22.94 12.988S19.462 24.9 11.689 23.406-.369 16.7-.369 10.183 6.164.444 11.689-.2z" data-name="Path 24395" transform="translate(130.841 671.942)" style="fill:#f2c230"/>
        <g id="prefix__script_1_" data-name="script (1)" transform="translate(134.496 678.931)">
            <path id="prefix__Path_24382" d="M137.206 62.846h12.666a1.757 1.757 0 0 0-1.728-1.831h-12.666a1.757 1.757 0 0 1 1.728 1.831z" class="prefix__cls-2" data-name="Path 24382" transform="translate(-129.945 -60.709)"/>
            <path id="prefix__Path_24383" d="M105.744 62.743a1.728 1.728 0 0 1 1.728-1.728H94.806a1.728 1.728 0 0 0-1.728 1.728v14.2h10.938a1.728 1.728 0 0 0 1.728-1.728z" data-name="Path 24383" transform="translate(-89.277 -60.709)" style="fill:#f2ebda"/>
            <g id="prefix__Group_5178" data-name="Group 5178" transform="translate(.306 .306)">
                <path id="prefix__Path_24384" d="M313 61.015a1.728 1.728 0 0 0-1.728 1.728v12.469a1.728 1.728 0 0 1-1.728 1.728h2.1a1.728 1.728 0 0 0 1.728-1.728V62.743a1.728 1.728 0 0 1 1.728-1.728z" class="prefix__cls-2" data-name="Path 24384" transform="translate(-297.208 -61.015)"/>
                <path id="prefix__Path_24385" d="M20.171 406.146H7.505a1.757 1.757 0 0 0 1.728 1.831H21.9a1.757 1.757 0 0 1-1.729-1.831z" class="prefix__cls-2" data-name="Path 24385" transform="translate(-7.505 -392.052)"/>
            </g>
            <path id="prefix__Path_24386" d="M289.2 197.258a8.434 8.434 0 0 1 1.431-3.1c1.651-1.885 4.96-2.438 7.361-2.376a21.351 21.351 0 0 0-2.164 2.069 11.276 11.276 0 0 1-3.6 2.42 18.744 18.744 0 0 0-3.028.987z" data-name="Path 24386" transform="translate(-277.388 -186.132)" style="fill:#dda064"/>
            <path id="prefix__Path_24387" d="M289.2 197.351c.356-1.106 6.392-5.537 8.792-5.475a21.349 21.349 0 0 0-2.164 2.069 11.276 11.276 0 0 1-3.6 2.42 18.74 18.74 0 0 0-3.028.986z" data-name="Path 24387" transform="translate(-277.388 -186.225)" style="fill:#b57947"/>
            <path id="prefix__Path_24388" d="M199.851 130.6a.306.306 0 0 0-.306-.306h-6.525a.306.306 0 0 0 0 .613h6.524a.306.306 0 0 0 .307-.307z" data-name="Path 24388" transform="translate(-184.844 -127.16)"/>
            <path id="prefix__Path_24389" d="M132.792 130.909h1.033a.306.306 0 0 0 0-.613h-1.033a.306.306 0 1 0 0 .613z" data-name="Path 24389" transform="translate(-127.076 -127.16)"/>
            <path id="prefix__Path_24390" d="M132.792 360.341a.306.306 0 1 0 0 .613H136a.306.306 0 1 0 0-.613z" data-name="Path 24390" transform="translate(-127.076 -347.811)"/>
            <path id="prefix__Path_24391" d="M137.591 283.966a.306.306 0 0 0-.306-.306h-4.492a.306.306 0 1 0 0 .613h4.492a.306.306 0 0 0 .306-.307z" data-name="Path 24391" transform="translate(-127.076 -274.261)"/>
            <path id="prefix__Path_24392" d="M139.777 207.283a.306.306 0 0 0-.306-.306h-6.678a.306.306 0 1 0 0 .613h6.678a.306.306 0 0 0 .306-.307z" data-name="Path 24392" transform="translate(-127.076 -200.71)"/>
            <path id="prefix__Path_24393" d="M16.467 63.993a.306.306 0 0 0-.306.306v3.714a1.423 1.423 0 0 1-1.422 1.422H14.7a1.455 1.455 0 0 1-1.421-1.528.307.307 0 0 0-.306-.3H4.107V55.545a1.423 1.423 0 0 1 1.422-1.422h11.212l-.026.028-.032.034-.032.037-.031.036-.031.039-.029.038-.028.04-.028.04-.026.041-.026.041-.024.042-.024.042-.022.044-.022.044-.02.045-.02.045-.018.046-.018.046-.016.048-.015.046-.014.049-.013.046-.012.052-.01.046-.01.054-.008.045-.007.059c-.002.02 0 .028-.005.042s0 .044-.005.066 0 .024 0 .036V58.26a.306.306 0 1 0 .613 0v-2.306h3.153a.306.306 0 0 0 .306-.31 2.056 2.056 0 0 0-2.037-2.135H5.529a2.037 2.037 0 0 0-2.035 2.035V67.6H.306a.306.306 0 0 0-.306.31 2.055 2.055 0 0 0 2.034 2.135h12.7a2.037 2.037 0 0 0 2.035-2.035V64.3a.306.306 0 0 0-.302-.307zm.322-8.658v-.028c0-.009 0-.026.007-.039l.006-.029.008-.036.008-.03.01-.034.01-.031.011-.032.011-.031.012-.03.013-.032.013-.028.015-.033.012-.024.018-.035.008-.013a1.424 1.424 0 0 1 .093-.145l.034-.044.005-.007.035-.041.007-.008.037-.04.006-.006.039-.039.043-.039a1.421 1.421 0 0 1 .674-.326l.063-.01.061-.007h.152a1.42 1.42 0 0 1 1.392 1.218h-2.8zm-14.755 14.1a1.42 1.42 0 0 1-1.392-1.218h12.045q.006.048.015.094c0 .01 0 .021.006.031s.008.041.012.062l.008.036c0 .018.009.037.013.055l.01.038.015.051.012.038.016.049.013.038.018.048.015.036.021.048.015.034.024.05.015.031.031.057.011.021.045.076.011.017.037.056.018.025.033.046.021.027.033.042.023.027.034.039.024.026.017.019z" data-name="Path 24393" transform="translate(0 -53.51)"/>
            <path id="prefix__Path_24394" d="M278.929 184.581v-.011a.3.3 0 0 0-.015-.083v-.007a.314.314 0 0 0-.017-.039.3.3 0 0 0-.02-.032v-.007a.3.3 0 0 0-.026-.03l-.006-.006-.028-.024a.315.315 0 0 0-.035-.022h-.007a.3.3 0 0 0-.038-.016.311.311 0 0 0-.041-.011h-.009a.3.3 0 0 0-.042 0c-2.564-.066-5.908.551-7.6 2.481a7.976 7.976 0 0 0-1.411 2.952l-.081.254v.011l-.518 1.84a.306.306 0 1 0 .59.166l.48-1.706a9.541 9.541 0 0 1 1.7-.578c.331-.09.707-.192 1.161-.332a11.465 11.465 0 0 0 3.735-2.505 20.945 20.945 0 0 1 2.135-2.04.3.3 0 0 0 .03-.029.3.3 0 0 0 .025-.034v-.007a.307.307 0 0 0 .034-.076v-.008a.306.306 0 0 0 .008-.041v-.029c0-.01-.004-.027-.004-.031zm-7.436 2.581a6.5 6.5 0 0 1 3.25-1.825 12.022 12.022 0 0 1 1.22-.265 23.7 23.7 0 0 0-2.673 1.555 24.518 24.518 0 0 0-2.662 2.035 5.031 5.031 0 0 1 .865-1.5zm4.74-.718a11.061 11.061 0 0 1-3.465 2.335c-.445.137-.815.238-1.142.326-.3.08-.565.154-.831.238.119-.114.259-.242.423-.385a24.524 24.524 0 0 1 2.412-1.821 16.652 16.652 0 0 1 3.974-2.073c-.446.411-.884.854-1.371 1.38z" data-name="Path 24394" transform="translate(-258.021 -178.933)"/>
        </g>
    </g>
</svg>
